<?xml version="1.0" encoding="utf-8"?>
<!-- Generator: Adobe Illustrator 23.0.1, SVG Export Plug-In . SVG Version: 6.00 Build 0)  -->
<svg version="1.1" id="Camada_1" xmlns="http://www.w3.org/2000/svg" xmlns:xlink="http://www.w3.org/1999/xlink" x="0px" y="0px"
	 viewBox="0 0 288 560" style="enable-background:new 0 0 288 560;" xml:space="preserve">
<style type="text/css">
	.st0{fill:#22B573;}
	.st1{fill:none;stroke:#000000;stroke-width:2;stroke-miterlimit:10;}
	.st2{fill:#FBCB9A;}
	.st3{fill:#F7931E;}
	.st4{fill:#FFFFFF;}
</style>
<g>
	<path class="st0" d="M84.3,311.6c0,3.3,2.7,6,6,6h83.8c3.3,0,6-2.7,6-6V202.2c0-3.3-2.7-6-6-6H90.3c-3.3,0-6,2.7-6,6V311.6z"/>
	<path class="st1" d="M84.3,311.6c0,3.3,2.7,6,6,6h83.8c3.3,0,6-2.7,6-6V202.2c0-3.3-2.7-6-6-6H90.3c-3.3,0-6,2.7-6,6V311.6z"/>
</g>
<g id="Camada_2">
	<polyline class="st2" points="114.3,245.3 112.9,246.3 112.5,247.6 111.9,250.9 111.4,254.4 109.9,259.1 106.6,264.8 101.8,270.6 
		99.6,274.8 97.7,279.6 97.3,283.2 96.5,287.3 93.9,291.4 89.6,296.9 87.2,299.5 86.2,300.3 86.2,309.5 86.2,312.4 86.9,314.3 
		87.9,315.3 89.1,316.2 89.6,316.2 91.6,316.2 104.9,316.2 105.7,315.7 108.2,313.7 111.6,310.7 114,308.8 117,307.3 120.4,306.1 
		123.7,304.7 127.8,302.1 131.2,299.8 132.2,297.8 118.5,296.2 116.1,295.3 114.4,293.7 113.2,291.9 112.6,289.7 112.6,286.7 
		113.3,282.4 113.3,278.5 113.8,275.2 114.7,271.5 116.5,268.5 118,265.2 119.4,262.3 120.8,258.6 121.2,256.1 121.7,253.3 
		120.4,248.7 118.7,245.7 116.4,244.3 114.7,244.3 113.6,244.8 	"/>
	<polygon class="st2" points="154.1,254.9 153.1,262 153.1,263.8 153.1,265.2 154.1,265.8 157,264 158.9,262 159.9,259.8 
		158.9,257.9 157.1,255.7 	"/>
	<polygon class="st2" points="150.6,265.7 147.4,267.9 145.3,270.7 145.3,272.1 145.9,275 148,275.6 151,275.6 153.7,275 
		155.6,273.8 156.7,271.3 156.7,269 155,266.3 153.3,265.7 	"/>
	<polyline class="st2" points="146.1,277.6 144.6,280.5 144.6,282.3 145.5,284.7 146.9,285.6 149.7,285.6 153,285.1 154.8,284 
		156.1,282.8 156.6,281.1 156.9,278.6 155.7,277 153.9,275.9 152.1,275.2 148.2,276.2 146.1,277.6 	"/>
	<polygon class="st2" points="146.6,287.7 146.2,289.7 146.6,291.7 147.8,292.5 148.9,293.2 152.8,292.5 154.2,291 155.3,289.7 
		155.3,287.7 154.6,286 152.8,285 150.3,285.5 148.5,286 	"/>
	<polygon class="st3" points="117,243.3 117.9,233.8 119.9,230.4 122.3,228.7 124.8,227.9 132.2,228.7 141.1,229.4 149.4,230.3 
		151.8,231.2 153.9,232.8 155.8,236.2 155.3,241.1 155.3,246.3 153.1,262 153.1,265.7 149.4,265.7 152.1,241 151.3,238.9 
		150.4,237.6 145.2,237 122.8,235.1 121,236.3 120.4,239.9 119.9,246.3 117.5,245.1 	"/>
	<polygon class="st3" points="116.1,268.5 114.4,272.7 113.4,279.1 113.1,281.9 112.5,289.1 114.1,293.3 115.6,295.1 120.5,296.5 
		128.7,297.5 141.3,298.6 146.3,297.9 148.6,296.4 149.6,294.7 149.6,293.6 147.9,292.5 146.3,291.8 146,290.2 146,287.7 
		143.5,287.5 120.6,285 118.3,284.6 116.6,283.5 117.1,277.1 117.6,270.5 117.6,266.9 	"/>
	<line class="st4" x1="72" y1="259.1" x2="72.9" y2="252.7"/>
	<polygon class="st4" points="121.1,236 122.9,234.7 123.8,234.8 130,235.2 150.8,237.3 152,239.1 152.4,241.3 149.8,265.8 
		148.6,266.3 146.1,268.6 145.5,272.1 145.9,273.8 148.2,275.6 146.1,277.7 144.6,279.9 144.6,282.5 145.2,284.5 147.9,286.3 
		146.1,288 118.8,285.3 116.5,283.8 116.5,281.5 117.6,274.3 117.6,267.1 117.8,265.8 119.4,263.3 120.3,260.2 121.2,256 
		121.1,251.1 119.9,247.6 120.1,245.2 121.1,236.6 	"/>
</g>
<g>
	<path d="M155.1,265.9c0.3,0.7,0.9,1,1.4,1.5c1.6,1.8,0.7,6-1.2,7.1c-0.5,0.3-0.9,0.6-0.1,1.2c1.7,1.2,2.2,2.9,1.8,5.1
		c-0.3,2.1-1.5,3.4-3.2,4.4c2.4,1.7,2.3,3.5,1.5,5.8c-0.6,1.7-2.2,2.2-3.8,2.4c-0.7,0.1-1,0.3-1.3,0.9c-1.4,3.3-4.1,4.7-7.4,4.9
		c-1.6,0.1-3.2-0.3-4.8-0.4c-1.5-0.1-2.9-0.3-4.4-0.5c-0.3,0-0.4,0.1-0.5,0.3c-1.5,1.9-3.5,3.1-5.5,4.3c-1.5,0.9-2.9,2-4.5,2.7
		c-1.7,0.8-3.4,1.6-5.1,2c-2.1,0.5-3.6,1.8-5.3,3c-2.4,1.7-4.5,3.7-6.6,5.7c-0.6,0.5-0.8,0.2-1.2-0.1c-0.5-0.4-0.1-0.7,0.2-0.9
		c3-2.7,5.9-5.4,9.3-7.5c1.1-0.7,2.5-1.1,3.7-1.5c2.2-0.7,4.3-1.6,6.3-2.8c1.6-1,3.2-2,4.7-3.1c0.7-0.5,1.3-1,1.9-1.6
		c0.4-0.3,0.3-0.6-0.3-0.7c-2.4-0.2-4.9-0.3-7.3-0.7c-2-0.3-4-0.2-6-0.8c-2.9-0.8-5.5-4-5.6-7.1c-0.1-2.9,0.4-5.6,0.7-8.4
		c0.2-1.7,0.2-3.5,0.4-5.2c0.1-1.2,0.5-2.4,0.9-3.6c0.6-1.9,1.5-3.7,2.4-5.5c0.5-1.1,1.2-1.9,1.8-3c1.2-2.2,2.1-4.6,2.4-7
		c0.3-2.2,0.3-4.5-0.5-6.7c-0.4-1.1-0.7-2.1-1.4-3.1c-0.8-1.3-2-1.7-3.3-1.9c-0.9-0.1-1.5,0.3-2,1.2c-0.8,1.9-0.9,4-1.1,6
		c-0.3,3.3-1.5,6.3-3,9.2c-1.8,3.2-4.1,6.1-6.3,9.1c-1.2,1.5-2.3,3.1-3.1,4.9c-1.1,2.6-2.1,5.2-2.2,8.1c-0.1,4.1-2.5,7.2-4.9,10.2
		c-1.9,2.4-3.7,4.9-6,6.9c-0.5,0.5-0.9,0.5-1.4-0.1c0.6-0.1,1.1-0.2,0.7-1c-0.1-0.2,0.1-0.4,0.3-0.5c2.2-1.8,3.7-4.1,5.5-6.2
		c1.4-1.6,2.3-3.5,3.5-5.3c0.6-0.9,0.8-2,0.9-3c0-2,0.4-3.9,0.9-5.8c0.7-2.6,1.8-5,3.3-7.2c2.2-3.1,4.7-6,6.6-9.3
		c1.4-2.3,2.6-4.6,3.3-7.1c0.5-1.7,0.5-3.5,0.7-5.2c0.2-1.5,0.4-3,1.1-4.5c0.6-1.2,1.4-1.8,2.8-1.8c1.3,0.1,1.4-0.1,1.5-1.7
		c0.2-2.5,0.3-5.1,0.7-7.6c0.4-3.2,3-6,6.2-6.8c2-0.5,3.8-0.1,5.7,0.1c1.7,0.1,3.5,0.3,5.2,0.5c2.6,0.3,5.2,0.5,7.8,0.8
		c1.8,0.2,3.6,0.3,5.4,0.5c2.4,0.2,4.5,0.8,6.3,2.6c2.1,2.1,2.5,4.6,2.3,7.3c-0.2,1.8-0.4,3.7-0.6,5.5c-0.3,2.7-0.5,5.4-0.8,8
		c-0.1,0.8,0.1,1.3,1,1.6c2.1,0.6,3.9,1.8,4.5,4.1c0.4,1.4,0,2.8-0.9,4.1C158.2,264.2,156.7,265.1,155.1,265.9z M146.2,286.2
		c-0.3-0.2-0.5-0.4-0.7-0.5c-2-0.8-2.8-4.8-1.9-6.5c0.6-1.2,1.4-2.1,2.4-2.8c0.6-0.4,0.6-0.7,0-1.1c-2.5-1.9-2.2-6,0.1-7.7
		c0.6-0.5,1.3-0.9,2-1.4c0.4-0.3,0.7-0.6,0.7-1.1c0.2-1.7,0.3-3.3,0.4-5c0.2-1.7,0.2-3.5,0.5-5.2c0.3-2.7,0.6-5.4,0.8-8.1
		c0.2-1.8,0.3-3.5,0.6-5.3c0.3-2.3-0.6-3.4-2.9-3.5c-1.7-0.1-3.4-0.2-5-0.4c-2.7-0.4-5.4-0.5-8-0.8c-1.7-0.2-3.5-0.4-5.2-0.6
		c-2.3-0.2-4.5-0.5-6.8-0.6c-0.8,0-1.6,0.5-1.8,1.4c-0.1,0.7-0.2,1.5-0.3,2.2c-0.2,1.9-0.4,3.8-0.6,5.7c-0.1,1-0.4,2-0.1,2.9
		c0.8,2.3,1.4,4.5,1.3,6.9c0,2.1-0.4,4.1-1.1,6.2c-0.8,2.4-2.5,4.5-2.4,7.3c0.1,2.7-0.5,5.4-0.8,8.1c-0.2,1.8-0.4,3.6-0.6,5.4
		c-0.1,1.1,0.6,2.3,1.7,2.4c1.6,0.2,3.2,0.4,4.8,0.5c1.6,0.1,3.2,0.3,4.8,0.4c2.6,0.3,5.2,0.5,7.8,0.8c1.8,0.2,3.7,0.5,5.5,0.6
		C143.1,286.5,144.6,287.1,146.2,286.2z M117,268.5c-1.2,1.9-1.8,3.7-2.3,5.5c-0.6,2.3-0.6,4.8-0.9,7.2c-0.2,1.9-0.4,3.7-0.6,5.6
		c-0.2,2.1-0.2,4.2,1.2,6c1.5,2,3.6,2.8,6,2.9c1.7,0.1,3.4,0.3,5,0.4c2.5,0.3,5.1,0.6,7.6,0.8c2.5,0.2,5,0.3,7.5,0.7
		c1.9,0.3,3.7,0.1,5.4-0.7c1.2-0.5,2.5-2.1,2.6-3.2c-0.4-0.1-0.9,0-1.3-0.3c-1.8-1.1-2.5-2.7-2.1-4.7c0.1-0.7-0.2-0.9-0.7-0.9
		c-1.5-0.1-3.1-0.3-4.6-0.4c-2.5-0.2-5.1-0.4-7.6-0.7c-4.2-0.4-8.4-0.8-12.7-1.3c-2.2-0.2-4.1-0.8-3.9-4.1c0-0.7,0.1-1.4,0.2-2.1
		c0.2-1.8,0.4-3.6,0.6-5.4C116.7,272.3,116.8,270.5,117,268.5z M119.3,245.4c0.2-2.4,0.5-4.8,0.7-7.2c0.1-2,1.2-3.6,2.6-3.9
		c1.3-0.3,2.6,0,3.9,0.1c2.5,0.2,5,0.5,7.5,0.8c2.5,0.2,5,0.4,7.4,0.7c2.6,0.3,5.1,0.6,7.7,0.8c2.2,0.2,3.7,1.8,3.5,4
		c-0.1,0.9-0.2,1.8-0.3,2.7c-0.2,2.5-0.4,5-0.7,7.4c-0.3,2.7-0.5,5.4-0.8,8.1c-0.2,1.7-0.4,3.4-0.5,5.1c0,0.4-0.4,1.1,0.2,1.1
		c0.6,0,1.6,0.2,1.7-0.9c0.2-2.4,0.4-4.7,0.6-7.1c0.2-1.8,0.3-3.6,0.5-5.3c0.3-2.6,0.6-5.2,0.8-7.8c0.2-1.7,0.2-3.4,0.5-5.1
		c0.7-4.2-2.2-7.7-6.3-8c-2.3-0.2-4.6-0.4-6.9-0.6c-2.7-0.3-5.4-0.5-8.1-0.8c-1.7-0.2-3.5-0.5-5.2-0.6c-1.6-0.1-3.2-0.6-4.8,0
		c-3.1,1.2-4.9,3.4-5,7c-0.1,1.8-0.3,3.7-0.6,5.5C117.3,244,117.5,244.5,119.3,245.4z M148.5,284.9c0.5-0.1,1-0.1,1.6-0.2
		c1.3-0.2,2.6-0.4,3.7-1.1c1.6-1,2-2.6,2-4.2c0-1.4-2.1-3.7-3.4-3.6c-2.2,0.3-4.4,0.5-6.2,2.1c-1.5,1.4-2,3.3-1.3,5.1
		C145.6,284.7,146.9,285.1,148.5,284.9z M155.9,270.2c0-2.2-2-3.9-4.2-3.7c-1.9,0.2-3.3,1.3-4.8,2.4c-1.5,1.1-1.5,3.4-0.5,4.9
		c0.6,0.9,1.8,1.2,2.9,0.9c0.7-0.2,1.3-0.6,2-0.5C153.8,274.8,156,272.6,155.9,270.2z M148.9,292.5c0.6,0,1.2-0.2,1.9-0.2
		c0.5,0,1-0.2,1.5-0.3c1.4-0.3,2.4-2.1,2.2-3.7c-0.2-1.2-1.5-2.3-2.8-2.2c-2.1,0.1-3.8,1.1-4.9,3C146,290.2,146.9,292.4,148.9,292.5
		z M158.9,259.6c0-0.3,0-0.7-0.1-1c-0.8-1.5-2.2-2.4-3.8-2.9c-0.4-0.1-0.5,0.1-0.6,0.5c-0.1,1-0.3,2.1-0.4,3.1
		c-0.2,1.6-0.3,3.2-0.4,4.8c-0.1,0.6,0.1,0.9,0.8,0.5c0.8-0.4,1.7-0.7,2.3-1.2C157.9,262.5,159.1,261.4,158.9,259.6z"/>
	<path d="M125.2,289.7c2.6,0.3,5.3,0.6,7.9,0.9c1.6,0.1,3.1,0.2,4.7,0.5c0.4,0.1,0.9-0.1,0.9,0.6c0,0.7-0.5,0.8-1,0.8
		c-1.1-0.1-2.2-0.1-3.4-0.2c-1.7-0.2-3.4-0.4-5.1-0.6c-1.6-0.2-3.1-0.3-4.7-0.4c-0.5,0-1-0.1-0.9-0.7c0.1-0.5,0.5-0.8,1-0.6
		C124.9,289.7,125.1,289.7,125.2,289.7C125.2,289.7,125.2,289.7,125.2,289.7z"/>
	<path d="M133.8,231.8c1.6,0.1,3.2,0.2,4.8,0.5c0.6,0.1,1.1,0.1,1.7,0.1c0.6,0,0.9,0.3,0.9,0.8c0,0.6-0.5,0.7-1,0.6
		c-1.9-0.2-3.8-0.4-5.7-0.6c-0.3,0-0.5,0-0.8-0.1c-0.4-0.2-0.7-0.3-0.6-0.8C133,231.8,133.4,231.7,133.8,231.8z"/>
</g>
<image style="overflow:visible;" width="155" height="156" xlink:href="4E60746B.png"  transform="matrix(0.1423 1.818620e-02 -1.818620e-02 0.1423 124.6613 248.5722)">
</image>
</svg>
